<?xml version="1.0" encoding="utf-8"?>
<!-- Generator: Adobe Illustrator 24.0.3, SVG Export Plug-In . SVG Version: 6.00 Build 0)  -->
<svg version="1.1" id="Capa_1" xmlns="http://www.w3.org/2000/svg" xmlns:xlink="http://www.w3.org/1999/xlink" x="0px" y="0px"
	 viewBox="0 0 426.7 426.7" style="enable-background:new 0 0 426.7 426.7;" xml:space="preserve">
<style type="text/css">
	.st0{fill:#FFFFFF;}
</style>
<g>
	<g>
		<path d="M213.3,0C95.5,0,0,95.5,0,213.3s95.5,213.3,213.3,213.3s213.3-95.5,213.3-213.3S331.2,0,213.3,0z"/>
	</g>
</g>
<g>
	<circle class="st0" cx="233.3" cy="249.7" r="56.7"/>
	<path class="st0" d="M323.6,255.4v-89.5h-89.5v21c34.3,0.5,61.9,28.5,62,62.8c0,1.9-0.1,3.8-0.3,5.6H323.6z"/>
	<path class="st0" d="M170.5,249.7c0-30.3,21.6-56.2,51.4-61.8l-39.7-67.7l-79.2,135.1h67.7C170.6,253.5,170.5,251.6,170.5,249.7
		L170.5,249.7z"/>
</g>
</svg>
