<?xml version="1.0" encoding="utf-8"?>
<!-- Generator: Adobe Illustrator 24.0.3, SVG Export Plug-In . SVG Version: 6.00 Build 0)  -->
<svg version="1.1" id="Layer_1" xmlns="http://www.w3.org/2000/svg" xmlns:xlink="http://www.w3.org/1999/xlink" x="0px" y="0px"
	 viewBox="0 0 492 492" style="enable-background:new 0 0 492 492;" xml:space="preserve">
<style type="text/css">
	.st0{fill:#FFFFFF;}
	.st1{fill:#191919;}
</style>
<circle class="st0" cx="246" cy="246" r="210"/>
<g>
	<g>
		<path class="st1" d="M313.1,236.6L205.6,129c-2.5-2.5-5.8-3.9-9.3-3.9c-3.5,0-6.9,1.4-9.3,3.9l-7.9,7.9c-5.2,5.2-5.2,13.5,0,18.7
			l90.3,90.3l-90.4,90.4c-2.5,2.5-3.9,5.8-3.9,9.3c0,3.5,1.4,6.9,3.9,9.4l7.9,7.9c2.5,2.5,5.8,3.9,9.3,3.9c3.5,0,6.9-1.4,9.3-3.9
			l107.7-107.7c2.5-2.5,3.9-5.8,3.9-9.4C317,242.4,315.6,239.1,313.1,236.6z"/>
	</g>
</g>
</svg>
